<?xml version="1.0" encoding="utf-8"?>
<!-- Generator: Adobe Illustrator 17.0.2, SVG Export Plug-In . SVG Version: 6.00 Build 0)  -->
<!DOCTYPE svg PUBLIC "-//W3C//DTD SVG 1.1//EN" "http://www.w3.org/Graphics/SVG/1.1/DTD/svg11.dtd">
<svg version="1.1" id="Layer_1" xmlns="http://www.w3.org/2000/svg" xmlns:xlink="http://www.w3.org/1999/xlink" x="0px" y="0px"
	 width="220px" height="49px" viewBox="0 0 220 49" enable-background="new 0 0 220 49" xml:space="preserve">
<rect x="129.62" y="8.5" fill="#777679" width="2.17" height="9.1"/>
<polygon fill="#777679" points="137.79,11.21 137.79,17.6 135.73,17.6 135.73,8.5 138.37,8.5 141.96,14.9 141.96,8.5 144.02,8.5 
	144.02,17.6 141.38,17.6 "/>
<g>
	<defs>
		<rect id="SVGID_1_" x="0.12" y="0.19" width="219.76" height="48.63"/>
	</defs>
	<clipPath id="SVGID_2_">
		<use xlink:href="#SVGID_1_"  overflow="visible"/>
	</clipPath>
	<path clip-path="url(#SVGID_2_)" fill="#777679" d="M150.67,17.77c-1.02,0-2.29-0.19-3.24-0.58l0.35-1.65
		c0.82,0.24,1.98,0.44,2.9,0.44c1.16,0,1.42-0.23,1.42-0.93c0-0.68-0.07-0.86-1.87-1.24c-2.49-0.53-2.71-1.21-2.71-2.92
		c0-1.94,1.1-2.57,3.52-2.57c0.89,0,2.15,0.12,3.03,0.37l-0.26,1.73c-0.96-0.21-1.96-0.32-2.73-0.32c-1.17,0-1.38,0.14-1.38,0.86
		c0,0.77,0.07,0.82,1.82,1.22c2.57,0.6,2.77,1.03,2.77,2.78C154.28,16.85,153.58,17.77,150.67,17.77"/>
	<path clip-path="url(#SVGID_2_)" fill="#777679" d="M165.27,8.5v6.41c0,1.45-0.89,2.87-3.85,2.87c-2.96,0-3.85-1.42-3.85-2.87V8.5
		h2.17v6.18c0,0.77,0.4,1.23,1.68,1.23c1.28,0,1.68-0.46,1.68-1.23V8.5H165.27z"/>
	<path clip-path="url(#SVGID_2_)" fill="#777679" d="M174.37,12.24v-1.08c0-0.65-0.3-0.89-1.05-0.89h-2.12v2.94h2.05
		C174.08,13.2,174.37,12.89,174.37,12.24 M173.13,14.94h-1.93v2.66h-2.17V8.5h4.27c2.4,0,3.18,0.94,3.18,2.56v1.31
		c0,1.03-0.28,1.63-1.21,2.13l2.1,3.1h-2.47L173.13,14.94z"/>
</g>
<path fill="#777679" d="M184.19,10.14l-1.33,4.13h2.66L184.19,10.14z M188.73,17.6h-2.17l-0.52-1.63h-3.68l-0.52,1.63h-2.17
	l3.18-9.1h2.7L188.73,17.6z"/>
<polygon fill="#777679" points="193.77,11.21 193.77,17.6 191.7,17.6 191.7,8.5 194.34,8.5 197.93,14.9 197.93,8.5 200,8.5 
	200,17.6 197.35,17.6 "/>
<g>
	<defs>
		<rect id="SVGID_3_" x="0.12" y="0.19" width="219.76" height="48.63"/>
	</defs>
	<clipPath id="SVGID_4_">
		<use xlink:href="#SVGID_3_"  overflow="visible"/>
	</clipPath>
	<path clip-path="url(#SVGID_4_)" fill="#777679" d="M203.58,14.9v-3.71c0-1.87,1.07-2.87,3.62-2.87c0.93,0,1.96,0.1,2.87,0.3
		l-0.17,1.82c-0.89-0.16-1.87-0.23-2.63-0.23c-1.12,0-1.52,0.33-1.52,1.24v3.19c0,0.91,0.4,1.24,1.52,1.24
		c0.75,0,1.73-0.07,2.63-0.23l0.17,1.82c-0.91,0.19-1.94,0.3-2.87,0.3C204.65,17.77,203.58,16.77,203.58,14.9"/>
</g>
<polygon fill="#777679" points="213.49,8.5 213.49,17.6 219.88,17.6 219.88,15.81 215.66,15.81 215.66,13.85 219.56,13.85 
	219.56,12.05 215.66,12.05 215.66,10.28 219.88,10.28 219.88,8.5 "/>
<g>
	<defs>
		<rect id="SVGID_5_" x="0.12" y="0.19" width="219.76" height="48.63"/>
	</defs>
	<clipPath id="SVGID_6_">
		<use xlink:href="#SVGID_5_"  overflow="visible"/>
	</clipPath>
	<path clip-path="url(#SVGID_6_)" fill="#777679" d="M131.7,30.2h1.8c0.98,0,1.35-0.39,1.35-1.23V26c0-0.84-0.37-1.23-1.35-1.23
		h-1.8V30.2z M136.99,28.96c0,1.75-0.65,3.08-3.36,3.08h-4.1v-9.1h4.1c2.71,0,3.36,1.33,3.36,3.08V28.96z"/>
</g>
<polygon fill="#777679" points="140.49,22.94 146.88,22.94 146.88,24.72 142.66,24.72 142.66,26.49 146.56,26.49 146.56,28.29 
	142.66,28.29 142.66,30.25 146.88,30.25 146.88,32.04 140.49,32.04 "/>
<polygon fill="#777679" points="150.38,32.04 150.38,22.94 156.82,22.94 156.82,24.72 152.55,24.72 152.55,26.87 156.57,26.87 
	156.57,28.68 152.55,28.68 152.55,32.04 "/>
<polygon fill="#777679" points="160.06,22.94 166.45,22.94 166.45,24.72 162.23,24.72 162.23,26.49 166.13,26.49 166.13,28.29 
	162.23,28.29 162.23,30.25 166.45,30.25 166.45,32.04 160.06,32.04 "/>
<polygon fill="#777679" points="172.01,25.65 172.01,32.04 169.95,32.04 169.95,22.94 172.59,22.94 176.18,29.34 176.18,22.94 
	178.24,22.94 178.24,32.04 175.6,32.04 "/>
<g>
	<defs>
		<rect id="SVGID_7_" x="0.12" y="0.19" width="219.76" height="48.63"/>
	</defs>
	<clipPath id="SVGID_8_">
		<use xlink:href="#SVGID_7_"  overflow="visible"/>
	</clipPath>
	<path clip-path="url(#SVGID_8_)" fill="#777679" d="M184.89,32.21c-1.02,0-2.29-0.19-3.24-0.58l0.35-1.65
		c0.82,0.25,1.98,0.44,2.91,0.44c1.15,0,1.42-0.23,1.42-0.93c0-0.68-0.07-0.86-1.87-1.24c-2.49-0.52-2.71-1.21-2.71-2.92
		c0-1.94,1.1-2.57,3.52-2.57c0.89,0,2.15,0.12,3.03,0.37l-0.26,1.73c-0.96-0.21-1.96-0.31-2.73-0.31c-1.17,0-1.38,0.14-1.38,0.86
		c0,0.77,0.07,0.82,1.82,1.22c2.57,0.6,2.77,1.03,2.77,2.78C188.5,31.28,187.8,32.21,184.89,32.21"/>
</g>
<polygon fill="#777679" points="191.88,22.94 198.26,22.94 198.26,24.72 194.05,24.72 194.05,26.49 197.95,26.49 197.95,28.29 
	194.05,28.29 194.05,30.25 198.26,30.25 198.26,32.04 191.88,32.04 "/>
<rect x="116.9" y="0.19" fill="#777679" width="0.88" height="39.56"/>
<g>
	<defs>
		<rect id="SVGID_9_" x="0.12" y="0.19" width="219.76" height="48.63"/>
	</defs>
	<clipPath id="SVGID_10_">
		<use xlink:href="#SVGID_9_"  overflow="visible"/>
	</clipPath>
	<path clip-path="url(#SVGID_10_)" fill="#DE1F26" d="M35.95,32.01V14.88c0-3.28-2.14-4.77-5.03-4.77c-3.51,0-6.34,2.58-6.34,5.92
		v15.97h-6.54V14.88c0-3.28-2.27-4.77-5.17-4.77c-3.51,0-6.2,2.58-6.2,5.99v15.9H0.12V4.53l6.55,0.56v2.7
		c1.65-1.93,4.55-3.35,7.58-3.35c4.55,0,7.17,1.48,9.03,4.12c2.21-2.83,6.27-4.12,9.23-4.12c7.51,0,9.99,4.44,9.99,9.85v17.71H35.95
		z"/>
	<path clip-path="url(#SVGID_10_)" fill="#DE1F26" d="M94.31,32.46c-3.81,0.2-7.69-1.14-10.6-4.03C78.22,23,78.18,14.12,83.61,8.64
		c2.63-2.66,6.14-4.13,9.88-4.15c3.74-0.02,7.26,1.42,9.91,4.05l-4.35,4.39c-1.48-1.47-3.45-2.27-5.54-2.26
		c-2.09,0.01-4.05,0.83-5.52,2.32c-3.03,3.06-3.01,8.02,0.05,11.06c3.06,3.04,8.03,3.01,11.06-0.05l4.39,4.35
		C100.95,30.9,97.66,32.28,94.31,32.46"/>
	<path clip-path="url(#SVGID_10_)" fill="#DE1F26" d="M53.22,18.51c0-4.31,3.51-7.82,7.82-7.82c4.31,0,7.82,3.51,7.82,7.82
		s-3.51,7.82-7.82,7.82C56.73,26.33,53.22,22.82,53.22,18.51 M72.04,9.87h2.25l1.01-5.12H63.63c-0.84-0.16-1.71-0.24-2.59-0.24
		c-7.72,0-14,6.28-14,13.99s6.28,13.99,14,13.99c1.96,0,3.82-0.4,5.51-1.13c0.75,1.16,1.15,2.52,1.15,3.93
		c0,1.95-0.76,3.78-2.14,5.16c-1.32,1.31-3.06,2.39-4.92,2.45c-2.67,0.09-7.56,0.02-7.56,0.02l-1.27,5.88c0,0,7.64,0,9.03-0.04
		c3.43-0.11,6.66-1.51,9.09-3.94c2.54-2.54,3.95-5.93,3.95-9.53c0-2.74-0.82-5.36-2.33-7.57c2.17-2.47,3.48-5.69,3.48-9.22
		C75.04,15.25,73.91,12.25,72.04,9.87"/>
</g>
</svg>
